<svg width="32" height="33" viewBox="0 0 32 33" fill="none" xmlns="http://www.w3.org/2000/svg">
<path d="M4.33301 8.41699C4.33301 7.73991 4.85384 7.16699 5.58301 7.16699H26.4163C27.0934 7.16699 27.6663 7.73991 27.6663 8.41699C27.6663 9.14616 27.0934 9.66699 26.4163 9.66699H5.58301C4.85384 9.66699 4.33301 9.14616 4.33301 8.41699ZM4.33301 16.7503C4.33301 16.0732 4.85384 15.5003 5.58301 15.5003H26.4163C27.0934 15.5003 27.6663 16.0732 27.6663 16.7503C27.6663 17.4795 27.0934 18.0003 26.4163 18.0003H5.58301C4.85384 18.0003 4.33301 17.4795 4.33301 16.7503ZM27.6663 25.0837C27.6663 25.8128 27.0934 26.3337 26.4163 26.3337H5.58301C4.85384 26.3337 4.33301 25.8128 4.33301 25.0837C4.33301 24.4066 4.85384 23.8337 5.58301 23.8337H26.4163C27.0934 23.8337 27.6663 24.4066 27.6663 25.0837Z" fill="#646B88"/>
</svg>
